<svg xmlns:xlink="http://www.w3.org/1999/xlink" xmlns="http://www.w3.org/2000/svg" viewBox="0 0 255 54" class="site-header__logo" width="255"  height="54" >
    <g fill="#000">
        <path d="M58.1 7.45a8 8 0 0 1 7.9 7.18 2.72 2.72 0 0 1 .63-.08A2.46 2.46 0 0 1 69 16.26a5.75 5.75 0 0 0 0-.83 11 11 0 1 0-.58 3.47v-.16a3 3 0 0 0 0-.6 2.16 2.16 0 0 0-4.3-.1v.1a2.19 2.19 0 0 0 .55 1.44 8 8 0 1 1-6.76-12.11m0-7.09a15 15 0 1 1-15 15.06 15.07 15.07 0 0 1 15-15m0 27.09A12 12 0 1 0 46 15.28v.13a12.07 12.07 0 0 0 12 12.05M131.51.9h-4.28l-11.35 10.8V.79h-3v17.83zM125 12.69L137.43.9h-4.33L121 12.38l13.33 17.45h3.76zm-12.2 7.49v9.65h3v-8.37l4.07-3.86 9.35 12.23H133l-12.72-16.69zm-4.08 9.65h3V.79h-2.92zM98.07 19.19A9.89 9.89 0 0 0 94 .27H76.16v29.56h3V3.29h14.93a6.91 6.91 0 1 1 .53 13.81H93l8.86 12.76h3.63zm-6.49-2.12H80.23v12.76h3.07V20.1h6.89L97 29.83h3.63zM83.3 13h10.86a2.82 2.82 0 1 0 0-5.64H83.3zm16.7-2.81A5.82 5.82 0 0 1 94.16 16H80.25V4.36h13.84a5.82 5.82 0 0 1 5.81 5.8M39.52.79h-3.08L31 17.63 26.16.79H23l7.88 27.06zm-25 29h3.11l4.75-16.38 4.82 16.42h3.11L22.43 2.75zM1 .79l9.34 29h3.13L4.15.79zm20.87 0h-3.12l-4.86 16.84L8.43.79H5.3L14 27.85zm18.87 0h3.13l-9.34 29h-3.11z" fill="#000"></path>
        <path d="M229.39.79v29H254v-3h-21.55v-23h21.31v-3zm4.08 4.12v9.87h17.61v-3h-14.59V7.86h17.22V4.91zm0 11v9.89H254v-3h-17.54v-3.95h14.59v-3zm-31.14 14h3V3.77h21.31v-3H202.3zm4.09-15.08H224v-3h-14.57v-4h17.19V4.91h-20.2zm0 15.08h3v-11H224v-3h-17.58zM179 .84l-13.36 29h3.24l13.36-29zm0 16.91h7.85l-3.93-8.51zm12.52 3h-17.24l8.59-18.65zM186.8.84h-3.24l13.23 29H200zm-13 21.07l-3.68 8h3.24l2.32-5.06H190l2.31 5h3.24l-3.7-8zm-13-8.56a27.05 27.05 0 0 0-7.75-1.62 22.14 22.14 0 0 1-5.58-1.08c-.87-.38-.87-.64-.87-1.17 0-.29 0-.6.68-1a10.23 10.23 0 0 1 5-.91c2.59 0 5.51.41 7.33 3.37l2.54-1.62c-2-3.24-5.14-4.78-9.87-4.78-7.54 0-8.67 3.06-8.67 4.86a3.94 3.94 0 0 0 2.65 3.91 24.38 24.38 0 0 0 6.49 1.31 25.05 25.05 0 0 1 6.89 1.45 5.18 5.18 0 0 1 3.26 5 5.25 5.25 0 0 1-2.66 4.72 15.49 15.49 0 0 1-7.91 1.62c-5.92 0-9.73-2-11.77-6.18l-2.69 1.3a13 13 0 0 0 5.36 5.77 18.44 18.44 0 0 0 9.15 2.11 18.07 18.07 0 0 0 9.48-2.09 8.29 8.29 0 0 0 4.14-7.2 8.4 8.4 0 0 0-1.51-5 9 9 0 0 0-3.64-2.86m-8.42 13.07c-5.45 0-9-1.81-10.78-5.56l2.69-1.3c.88 1.8 2.58 3.88 8.11 3.88a11.33 11.33 0 0 0 5.77-1 1.21 1.21 0 0 0 .71-1.23c0-.68 0-1-1-1.36a22.14 22.14 0 0 0-5.7-1.11 27.07 27.07 0 0 1-7.6-1.62 8.2 8.2 0 0 1-.86-14.78 19.89 19.89 0 0 1 16.7 0 13.49 13.49 0 0 1 5.17 4.86l-2.54 1.62c-2.21-3.58-5.74-5.32-10.82-5.32a14.24 14.24 0 0 0-7 1.45 5.22 5.22 0 0 0-2.11 7.07 5.16 5.16 0 0 0 2.68 2.38 25.14 25.14 0 0 0 6.75 1.41 24 24 0 0 1 6.48 1.35 4.12 4.12 0 0 1 2.77 4.05 4.18 4.18 0 0 1-2.14 3.78 14.34 14.34 0 0 1-7.34 1.47M230.26 50.43c0-1.18" fill="#000"></path>
    </g>
</svg>